<svg width="150" height="150" viewBox="0 0 150 150" fill="none" xmlns="http://www.w3.org/2000/svg">
<g opacity="0.35">
<path d="M138.559 31.1213C137.885 30.2666 136.917 29.7258 135.828 29.5989L121.68 27.943V17.233C121.68 14.9829 119.85 13.1534 117.6 13.1534H101.048L99.3116 7.83175C98.6171 5.69509 96.3069 4.51993 94.1636 5.21434L69.7856 13.1467H36.9612C34.7111 13.1467 32.8816 14.9762 32.8816 17.2264V25.1654L17.491 30.1732C16.456 30.5137 15.608 31.2348 15.1139 32.203C14.6198 33.1778 14.5397 34.2862 14.8736 35.3212L32.8816 90.6139V130.256C32.8816 132.506 34.7111 134.335 36.9612 134.335H38.2766L38.0763 136.065C37.8159 138.301 39.4184 140.331 41.6552 140.592L49.454 141.506L49.8747 142.788C50.2152 143.823 50.9363 144.671 51.9045 145.165C52.4854 145.459 53.113 145.613 53.754 145.613C54.1814 145.613 54.6087 145.546 55.0227 145.412L62.3608 143.022L121.753 149.973C121.913 149.993 122.074 150 122.234 150C123.149 150 124.03 149.692 124.758 149.118C125.612 148.444 126.153 147.476 126.28 146.387L129.225 121.248L131.695 120.44C132.73 120.1 133.578 119.379 134.072 118.41C134.566 117.436 134.653 116.334 134.313 115.292L131.081 105.363L139.414 34.126C139.541 33.0443 139.24 31.9826 138.559 31.1213Z" fill="#878793"/>
</g>
<path d="M117.213 143.803L37.1217 134.429C35.5259 134.242 34.3774 132.793 34.5644 131.197L47.6981 18.9357C47.8851 17.3398 49.334 16.1914 50.9298 16.3783L131.021 25.7463C132.617 25.9332 133.765 27.3821 133.578 28.9779L120.445 141.239C120.258 142.842 118.809 143.99 117.213 143.803Z" fill="white"/>
<path d="M117.553 143.99C117.433 143.99 117.313 143.983 117.193 143.97L37.1016 134.595C36.287 134.502 35.5525 134.095 35.0451 133.447C34.5376 132.799 34.3039 131.998 34.4041 131.177L47.5312 18.9222C47.6247 18.1076 48.032 17.3731 48.6796 16.8657C49.3273 16.3582 50.1285 16.1312 50.9498 16.2247L131.041 25.5926C132.73 25.7929 133.939 27.3219 133.745 29.0112L120.612 141.273C120.431 142.828 119.096 143.99 117.553 143.99ZM117.233 143.636C118.735 143.816 120.104 142.735 120.278 141.226L133.411 28.9645C133.585 27.4622 132.51 26.0934 131.001 25.9198L50.9098 16.5519C50.182 16.465 49.4608 16.672 48.8866 17.1261C48.3124 17.5801 47.9452 18.2345 47.865 18.9623L34.7313 131.217C34.6445 131.945 34.8515 132.666 35.3055 133.24C35.7595 133.814 36.4139 134.181 37.1417 134.262L117.233 143.636Z" fill="#878793"/>
<g opacity="0.35">
<path d="M130.574 31.3214L117.44 143.583C117.433 143.663 117.42 143.736 117.4 143.816C117.333 143.81 117.28 143.803 117.213 143.796L37.1215 134.429C35.5191 134.242 34.3773 132.793 34.5642 131.197L47.698 18.9422C47.7047 18.8621 47.718 18.7886 47.7314 18.7085C47.7982 18.7085 47.8582 18.7152 47.925 18.7218L128.016 28.0898C129.619 28.2767 130.761 29.7256 130.574 31.3214Z" fill="#878793"/>
</g>
<path d="M117.553 144.992C117.393 144.992 117.239 144.985 117.079 144.965L36.9813 135.59C35.8996 135.464 34.9314 134.923 34.2504 134.068C33.576 133.213 33.2688 132.145 33.3957 131.063L46.5361 18.8021C46.663 17.7204 47.2038 16.7522 48.0585 16.0712C48.9132 15.3968 49.9815 15.0896 51.0632 15.2165L131.154 24.5844C133.391 24.8448 134.994 26.8813 134.733 29.1114L121.6 141.373C121.366 143.456 119.596 144.992 117.553 144.992ZM117.346 142.641C118.301 142.755 119.169 142.067 119.283 141.112L132.416 28.851C132.53 27.8962 131.842 27.0282 130.887 26.9147L50.7961 17.5468C50.3354 17.4934 49.8747 17.6202 49.5141 17.914C49.1469 18.2011 48.9198 18.6151 48.8664 19.0825L35.726 131.33C35.6726 131.791 35.7994 132.252 36.0932 132.612C36.3803 132.98 36.7943 133.207 37.2617 133.26L117.346 142.641Z" fill="#878793"/>
<path d="M126.661 114.324L120.945 116.187L67.5888 133.56L49.9748 139.296C48.4457 139.79 46.8032 138.956 46.3024 137.426L45.0471 133.56L34.4773 101.09L11.3079 29.9526C10.8138 28.4236 11.6485 26.7744 13.1775 26.2803L34.4773 19.3428L48.7262 14.7089L89.8568 1.31477C91.3858 0.813987 93.0284 1.64862 93.5292 3.18434L97.2817 14.7089L120.945 87.3686L128.524 110.652C129.024 112.181 128.19 113.823 126.661 114.324Z" fill="white"/>
<path d="M49.0735 139.603C48.5927 139.603 48.1187 139.49 47.678 139.263C46.9435 138.889 46.4027 138.254 46.1489 137.473L11.1478 30.006C10.6203 28.3902 11.5084 26.6475 13.1242 26.12L89.8035 1.14781C91.4193 0.620322 93.1554 1.50837 93.6895 3.12422L128.684 110.591C128.938 111.373 128.878 112.207 128.504 112.942C128.13 113.676 127.495 114.217 126.714 114.477L50.035 139.45C49.7211 139.556 49.394 139.603 49.0735 139.603ZM90.7583 1.33477C90.4779 1.33477 90.1908 1.37483 89.9103 1.46831L13.2311 26.4405C11.7888 26.9079 11.0009 28.4636 11.4683 29.8992L46.4694 137.366C46.6964 138.061 47.1839 138.628 47.8382 138.962C48.4926 139.296 49.2337 139.356 49.9348 139.129L126.614 114.157C127.315 113.93 127.883 113.442 128.21 112.788C128.544 112.134 128.597 111.393 128.37 110.692L93.369 3.23105C92.9951 2.07592 91.9134 1.33477 90.7583 1.33477Z" fill="#878793"/>
<g opacity="0.35">
<path d="M120.945 87.3685V116.187L67.589 133.56H48.3391L48.1254 132.893L37.549 100.422L34.4775 90.9875V17.62C34.4775 16.0109 35.7796 14.7021 37.3887 14.7021H97.2819L120.945 87.3685Z" fill="#262F6A"/>
<path d="M67.6157 133.727H48.2189L47.9651 132.946L34.3105 91.021V17.6201C34.3105 15.9241 35.6927 14.542 37.3887 14.542H97.402L121.106 87.3686V116.307L67.6157 133.727ZM48.4592 133.394H67.5623L120.772 116.067V87.3953L97.1617 14.8758H37.3887C35.873 14.8758 34.6444 16.1111 34.6444 17.6201V90.9675L48.4592 133.394Z" fill="#878793"/>
</g>
<path d="M49.0735 140.605C48.4392 140.605 47.8115 140.458 47.224 140.157C46.2491 139.663 45.528 138.822 45.1941 137.78L10.1997 30.3132C9.50528 28.1765 10.6804 25.8663 12.8171 25.1719L89.4964 0.199693C91.6397 -0.49472 93.9433 0.680441 94.6444 2.8171L129.639 110.284C129.979 111.319 129.893 112.428 129.398 113.402C128.904 114.377 128.063 115.098 127.021 115.432L50.3421 140.404C49.9282 140.538 49.5008 140.605 49.0735 140.605ZM90.7583 2.33635C90.5781 2.33635 90.3978 2.36306 90.2175 2.42315L13.5382 27.3953C12.6235 27.6958 12.1227 28.6773 12.4165 29.5921L47.4109 137.059C47.5578 137.5 47.8649 137.86 48.2789 138.074C48.6929 138.288 49.167 138.321 49.6077 138.181L126.287 113.209C126.728 113.062 127.088 112.755 127.302 112.341C127.516 111.927 127.549 111.453 127.409 111.012L92.4209 3.53822C92.1805 2.80374 91.4928 2.33635 90.7583 2.33635Z" fill="#878793"/>
<path d="M112.926 128.159H32.2874C30.6782 128.159 29.3762 126.857 29.3762 125.248V12.2252C29.3762 10.616 30.6782 9.31396 32.2874 9.31396H112.926C114.535 9.31396 115.837 10.616 115.837 12.2252V125.248C115.844 126.857 114.535 128.159 112.926 128.159Z" fill="white"/>
<path d="M112.926 128.326H32.2873C30.5914 128.326 29.2092 126.944 29.2092 125.248V12.2251C29.2092 10.5291 30.5914 9.14697 32.2873 9.14697H112.926C114.622 9.14697 116.004 10.5291 116.004 12.2251V125.248C116.011 126.944 114.629 128.326 112.926 128.326ZM32.2873 9.47415C30.7717 9.47415 29.5431 10.7094 29.5431 12.2184V125.241C29.5431 126.757 30.7783 127.985 32.2873 127.985H112.926C114.442 127.985 115.67 126.75 115.67 125.241V12.2251C115.67 10.7094 114.435 9.48083 112.926 9.48083H32.2873V9.47415Z" fill="#878793"/>
<path d="M112.926 129.327H32.2874C30.0373 129.327 28.2078 127.498 28.2078 125.248V12.2252C28.2078 9.97502 30.0373 8.14551 32.2874 8.14551H112.926C115.176 8.14551 117.006 9.97502 117.006 12.2252V125.248C117.013 127.498 115.183 129.327 112.926 129.327ZM32.2874 10.4758C31.3259 10.4758 30.5447 11.257 30.5447 12.2185V125.241C30.5447 126.202 31.3259 126.984 32.2874 126.984H112.926C113.888 126.984 114.669 126.202 114.669 125.241V12.2252C114.669 11.2637 113.888 10.4825 112.926 10.4825H32.2874V10.4758Z" fill="#878793"/>
<g opacity="0.3">
<path d="M78.5909 41.1484C81.8946 37.8447 81.8946 32.4883 78.5909 29.1846C75.2871 25.8808 69.9307 25.8808 66.627 29.1846C63.3232 32.4883 63.3232 37.8447 66.627 41.1484C69.9307 44.4522 75.2871 44.4522 78.5909 41.1484Z" fill="#878793"/>
</g>
<g opacity="0.3">
<path d="M86.5318 58.8708H58.6885C57.2596 58.8708 56.2447 57.5087 56.6186 56.1332C58.2077 50.2908 64.7646 45.9106 72.6101 45.9106C80.4557 45.9106 87.0192 50.2908 88.6017 56.1332C88.9756 57.5087 87.9607 58.8708 86.5318 58.8708Z" fill="#878793"/>
</g>
<g opacity="0.29">
<path d="M95.6258 68.4659H91.4126C90.765 68.4659 90.2441 67.9451 90.2441 67.2974C90.2441 66.6497 90.765 66.1289 91.4126 66.1289H95.6258C96.2735 66.1289 96.7943 66.6497 96.7943 67.2974C96.7943 67.9451 96.2735 68.4659 95.6258 68.4659Z" fill="#878793"/>
</g>
<g opacity="0.29">
<path d="M86.5986 68.4659H68.27C67.6224 68.4659 67.1016 67.9451 67.1016 67.2974C67.1016 66.6497 67.6224 66.1289 68.27 66.1289H86.5919C87.2395 66.1289 87.7604 66.6497 87.7604 67.2974C87.7604 67.9451 87.2395 68.4659 86.5986 68.4659Z" fill="#878793"/>
</g>
<g opacity="0.29">
<path d="M82.4787 74.5621H64.1502C63.5025 74.5621 62.9817 74.0413 62.9817 73.3936C62.9817 72.7459 63.5025 72.2251 64.1502 72.2251H82.472C83.1197 72.2251 83.6405 72.7459 83.6405 73.3936C83.6405 74.0413 83.1197 74.5621 82.4787 74.5621Z" fill="#878793"/>
</g>
<g opacity="0.29">
<path d="M72.9906 89.1714H54.6621C54.0145 89.1714 53.4937 88.6506 53.4937 88.003C53.4937 87.3553 54.0145 86.8345 54.6621 86.8345H72.984C73.6316 86.8345 74.1525 87.3553 74.1525 88.003C74.1525 88.6506 73.6316 89.1714 72.9906 89.1714Z" fill="#878793"/>
</g>
<g opacity="0.29">
<path d="M64.5976 84.8311H54.6621C54.0145 84.8311 53.4937 84.3103 53.4937 83.6626C53.4937 83.015 54.0145 82.4941 54.6621 82.4941H64.5976C65.2453 82.4941 65.7661 83.015 65.7661 83.6626C65.7661 84.3103 65.2386 84.8311 64.5976 84.8311Z" fill="#878793"/>
</g>
<g opacity="0.29">
<path d="M65.8462 99.7413H54.6621C54.0145 99.7413 53.4937 99.2205 53.4937 98.5728C53.4937 97.9251 54.0145 97.4043 54.6621 97.4043H65.8462C66.4939 97.4043 67.0147 97.9251 67.0147 98.5728C67.0147 99.2205 66.4939 99.7413 65.8462 99.7413Z" fill="#878793"/>
</g>
<g opacity="0.29">
<path d="M81.6241 103.774H54.6621C54.0145 103.774 53.4937 103.253 53.4937 102.605C53.4937 101.958 54.0145 101.437 54.6621 101.437H81.6241C82.2717 101.437 82.7926 101.958 82.7926 102.605C82.7926 103.253 82.2651 103.774 81.6241 103.774Z" fill="#878793"/>
</g>
<g opacity="0.29">
<path d="M72.9906 117.796H54.6621C54.0145 117.796 53.4937 117.275 53.4937 116.627C53.4937 115.98 54.0145 115.459 54.6621 115.459H72.984C73.6316 115.459 74.1525 115.98 74.1525 116.627C74.1525 117.275 73.6316 117.796 72.9906 117.796Z" fill="#878793"/>
</g>
<g opacity="0.29">
<path d="M62.4275 68.4659H46.9033C46.2557 68.4659 45.7349 67.9451 45.7349 67.2974C45.7349 66.6497 46.2557 66.1289 46.9033 66.1289H62.4275C63.0752 66.1289 63.596 66.6497 63.596 67.2974C63.596 67.9451 63.0685 68.4659 62.4275 68.4659Z" fill="#878793"/>
</g>
<g opacity="0.3">
<path d="M43.7786 88.791H38.1365C37.2952 88.791 36.6074 88.11 36.6074 87.262V81.6199C36.6074 80.7786 37.2885 80.0908 38.1365 80.0908H43.7786C44.6199 80.0908 45.3076 80.7719 45.3076 81.6199V87.262C45.3076 88.1033 44.6199 88.791 43.7786 88.791Z" fill="#878793"/>
</g>
<g opacity="0.3">
<path d="M43.7786 103.253H38.1365C37.2952 103.253 36.6074 102.572 36.6074 101.724V96.0823C36.6074 95.241 37.2885 94.5532 38.1365 94.5532H43.7786C44.6199 94.5532 45.3076 95.2343 45.3076 96.0823V101.724C45.3076 102.572 44.6199 103.253 43.7786 103.253Z" fill="#878793"/>
</g>
<g opacity="0.3">
<path d="M43.7786 117.723H38.1365C37.2952 117.723 36.6074 117.042 36.6074 116.194V110.551C36.6074 109.71 37.2885 109.022 38.1365 109.022H43.7786C44.6199 109.022 45.3076 109.704 45.3076 110.551V116.194C45.3076 117.042 44.6199 117.723 43.7786 117.723Z" fill="#878793"/>
</g>
<g opacity="0.2">
<path d="M113.06 42.312V122.557C113.06 124.073 111.824 125.314 110.302 125.314H29.3762V125.254C74.7201 123.612 103.178 95.7685 113.06 42.312Z" fill="#878793"/>
</g>
</svg>
