<svg xmlns="http://www.w3.org/2000/svg" width="24" height="24" viewBox="0 0 24 24">
  <g id="Group_57157" data-name="Group 57157" transform="translate(-180 -84)">
    <rect id="Rectangle_30062" data-name="Rectangle 30062" width="24" height="24" transform="translate(180 84)" fill="#fff" opacity="0"/>
    <g id="Group_57142" data-name="Group 57142" transform="translate(182 30.975)">
      <path id="Path_145624" data-name="Path 145624" d="M18.75,73.025H1.25a1.25,1.25,0,0,1,0-2.5h17.5a1.25,1.25,0,1,1,0,2.5Zm0-6.25H1.25a1.25,1.25,0,1,1,0-2.5h17.5a1.25,1.25,0,1,1,0,2.5Zm0-6.25H1.25a1.25,1.25,0,0,1,0-2.5h17.5a1.25,1.25,0,1,1,0,2.5Z"/>
    </g>
  </g>
</svg>
